<svg width="25" height="25" viewBox="0 0 25 25" fill="none" xmlns="http://www.w3.org/2000/svg">
<g clip-path="url(#clip0_12_95)">
<path d="M22.702 19.0661C22.702 19.4366 22.6197 19.8175 22.4447 20.188C22.2697 20.5586 22.0433 20.9085 21.7448 21.2379C21.2404 21.7937 20.6846 22.1952 20.0567 22.4525C19.4391 22.7098 18.7701 22.8436 18.0495 22.8436C16.9996 22.8436 15.8777 22.5966 14.694 22.0922C13.5103 21.5879 12.3265 20.9085 11.1531 20.0542C9.95717 19.1794 8.82861 18.216 7.77696 17.1721C6.73609 16.1243 5.77608 14.9991 4.90517 13.8063C4.06113 12.6328 3.38179 11.4594 2.88771 10.2963C2.39364 9.12286 2.14661 8.00091 2.14661 6.93042C2.14661 6.23048 2.27012 5.56143 2.51716 4.94384C2.7642 4.31596 3.15534 3.73954 3.70087 3.22488C4.35964 2.57641 5.08016 2.25732 5.84185 2.25732C6.13006 2.25732 6.41827 2.31908 6.6756 2.4426C6.94322 2.56612 7.17996 2.7514 7.36524 3.01902L9.75325 6.38488C9.93853 6.64221 10.0723 6.87895 10.165 7.1054C10.2576 7.32156 10.3091 7.53772 10.3091 7.73329C10.3091 7.98032 10.237 8.22736 10.0929 8.4641C9.95911 8.70084 9.76354 8.94788 9.51651 9.19491L8.73423 10.0081C8.621 10.1213 8.56954 10.2551 8.56954 10.4198C8.56954 10.5021 8.57983 10.5742 8.60042 10.6565C8.6313 10.7389 8.66218 10.8006 8.68276 10.8624C8.86804 11.2021 9.18713 11.6447 9.64003 12.1799C10.1032 12.7152 10.5973 13.2607 11.1325 13.8063C11.6884 14.3518 12.2236 14.8562 12.7691 15.3193C13.3044 15.7722 13.747 16.081 14.097 16.2663C14.1484 16.2869 14.2102 16.3178 14.2822 16.3487C14.3646 16.3795 14.4469 16.3898 14.5396 16.3898C14.7146 16.3898 14.8484 16.3281 14.9616 16.2149L15.7439 15.4429C16.0012 15.1855 16.2482 14.99 16.485 14.8664C16.7217 14.7223 16.9585 14.6503 17.2158 14.6503C17.4114 14.6503 17.6172 14.6915 17.8437 14.7841C18.0701 14.8767 18.3069 15.0106 18.5642 15.1855L21.9712 17.6044C22.2389 17.7897 22.4241 18.0059 22.5374 18.2632C22.6403 18.5205 22.702 18.7778 22.702 19.0661V19.0661Z" stroke="#6D2E46" stroke-width="2.31596" stroke-miterlimit="10"/>
</g>
<defs>
<clipPath id="clip0_12_95">
<rect width="24.7036" height="24.7036" fill="white" transform="translate(0.0878906 0.1987)"/>
</clipPath>
</defs>
</svg>
