<svg width="25" height="26" viewBox="0 0 25 26" fill="none" xmlns="http://www.w3.org/2000/svg">
<path d="M12.3518 14.8074C12.7736 14.8074 13.1912 14.7244 13.5808 14.563C13.9705 14.4016 14.3245 14.165 14.6227 13.8668C14.9209 13.5686 15.1575 13.2146 15.3189 12.8249C15.4802 12.4353 15.5633 12.0177 15.5633 11.596C15.5633 11.1742 15.4802 10.7566 15.3189 10.367C15.1575 9.97735 14.9209 9.62332 14.6227 9.32511C14.3245 9.0269 13.9705 8.79034 13.5808 8.62895C13.1912 8.46756 12.7736 8.38449 12.3518 8.38449C11.5001 8.38449 10.6833 8.72284 10.081 9.32511C9.47873 9.92737 9.14038 10.7442 9.14038 11.596C9.14038 12.4477 9.47873 13.2645 10.081 13.8668C10.6833 14.4691 11.5001 14.8074 12.3518 14.8074V14.8074Z" stroke="#6D2E46" stroke-width="2.31596"/>
<path d="M3.72607 9.72261C5.75382 0.80873 18.9599 0.819023 20.9774 9.7329C22.1611 14.9618 18.9085 19.3879 16.0573 22.1259C15.061 23.0868 13.7308 23.6237 12.3466 23.6237C10.9624 23.6237 9.63221 23.0868 8.63591 22.1259C5.79499 19.3879 2.54236 14.9515 3.72607 9.72261V9.72261Z" stroke="#6D2E46" stroke-width="2.31596"/>
</svg>
